<svg xmlns="http://www.w3.org/2000/svg" width="47.976" height="22.082" viewBox="0 0 47.976 22.082">
  <g id="Groupe_121" data-name="Groupe 121" transform="translate(-620.502 -292.092)">
    <g id="Groupe_120" data-name="Groupe 120" transform="translate(620.502 292.092)">
      <g id="Groupe_115" data-name="Groupe 115">
        <g id="Groupe_113" data-name="Groupe 113" transform="translate(0.394 0.394)">
          <path id="Tracé_80" data-name="Tracé 80" d="M668.34,303.39a31.468,31.468,0,0,1-47.188,0,31.465,31.465,0,0,1,47.188,0Z" transform="translate(-621.152 -292.742)" fill="#4bbfe8"/>
        </g>
        <g id="Groupe_114" data-name="Groupe 114">
          <path id="Tracé_81" data-name="Tracé 81" d="M644.491,314.174a31.887,31.887,0,0,1-23.89-10.779.394.394,0,0,1,0-.522,31.859,31.859,0,0,1,47.778,0,.394.394,0,0,1,0,.522A31.884,31.884,0,0,1,644.491,314.174Zm-23.067-11.04a31.073,31.073,0,0,0,46.131,0,31.071,31.071,0,0,0-46.131,0Z" transform="translate(-620.502 -292.092)"/>
        </g>
      </g>
      <g id="Groupe_118" data-name="Groupe 118" transform="translate(16.637 3.69)">
        <g id="Groupe_116" data-name="Groupe 116" transform="translate(0.395 0.394)">
          <path id="Tracé_82" data-name="Tracé 82" d="M655.557,298.83a6.96,6.96,0,1,1-6.957,6.957A6.961,6.961,0,0,1,655.557,298.83Z" transform="translate(-648.6 -298.83)" fill="#faca44"/>
        </g>
        <g id="Groupe_117" data-name="Groupe 117">
          <path id="Tracé_83" data-name="Tracé 83" d="M655.3,312.888a7.354,7.354,0,1,1,7.348-7.356A7.363,7.363,0,0,1,655.3,312.888Zm0-13.92a6.566,6.566,0,1,0,6.559,6.563A6.571,6.571,0,0,0,655.3,298.968Z" transform="translate(-647.949 -298.18)"/>
        </g>
      </g>
      <g id="Groupe_119" data-name="Groupe 119" transform="translate(20.76 6.288)">
        <path id="Tracé_84" data-name="Tracé 84" d="M656.864,306.686a2.11,2.11,0,1,1,2.112-2.114A2.116,2.116,0,0,1,656.864,306.686Zm0-3.432a1.322,1.322,0,1,0,1.324,1.318A1.323,1.323,0,0,0,656.864,303.254Z" transform="translate(-654.751 -302.465)"/>
      </g>
    </g>
  </g>
</svg>
