<svg xmlns="http://www.w3.org/2000/svg" width="1155.779" height="817.535" viewBox="0 0 1155.779 817.535">
  <path id="Tracé_127" data-name="Tracé 127" d="M1136.683.761V0h-18.309c-.23,12.159-10.386,21.952-22.958,22.137-12.432-.367-22.377-10.108-22.6-22.137H1053.5c-.23,12.159-10.386,21.952-22.958,22.137-12.572-.184-22.728-9.977-22.958-22.137h-19.1c-.23,12.159-10.386,21.952-22.958,22.137-12.544-.221-22.658-10-22.887-22.137h-19.1c-.229,12.133-10.343,21.915-22.887,22.137C888.092,21.952,877.935,12.159,877.705,0H860.827c-.344,12.04-10.436,21.679-22.887,21.86-12.324-.36-22.228-9.939-22.6-21.86h-19.1c-.344,12.04-10.436,21.679-22.887,21.86-12.6.006-22.929-9.676-23.316-21.86h-19.1c-.343,12.04-10.435,21.679-22.886,21.86C695.594,21.681,685.48,12.051,685.1,0H666c-.381,12.051-10.495,21.681-22.958,21.86C630.594,21.679,620.5,12.04,620.158,0H600.776c-.343,12.04-10.436,21.679-22.887,21.86-12.368-.29-22.333-9.9-22.672-21.86h-18.81c-.343,12.04-10.435,21.679-22.887,21.86-12.6.006-22.929-9.676-23.316-21.86h-19.1c-.344,12.04-10.436,21.679-22.887,21.86-12.464-.179-22.577-9.809-22.958-21.86h-19.1c-.381,12.051-10.494,21.681-22.958,21.86-12.451-.181-22.543-9.82-22.887-21.86H341.155c-.307,12.055-10.42,21.715-22.887,21.86-12.451-.181-22.543-9.82-22.887-21.86H276.214c-.343,12.04-10.435,21.679-22.887,21.86C240.864,21.681,230.75,12.051,230.369,0h-19.1c-.343,12.04-10.436,21.679-22.887,21.86-12.464-.179-22.577-9.809-22.958-21.86h-19.1c-.343,12.04-10.436,21.679-22.887,21.86-12.464-.179-22.577-9.809-22.958-21.86h-19.1C81.01,12.051,70.9,21.681,58.433,21.86,46.065,21.57,36.1,11.961,35.76,0H18.309V.761A22.611,22.611,0,0,1,0,22.413V41.921A22.619,22.619,0,0,1,18.452,63.574,22.686,22.686,0,0,1,0,85.3v19.439a22.688,22.688,0,0,1,18.452,21.652A22.685,22.685,0,0,1,0,148.108v19.508a22.619,22.619,0,0,1,18.452,21.652A22.688,22.688,0,0,1,0,210.921v19.508a22.619,22.619,0,0,1,18.452,21.652A22.619,22.619,0,0,1,0,273.734v19.508a22.688,22.688,0,0,1,18.452,21.652A22.619,22.619,0,0,1,0,336.546v19.508a22.688,22.688,0,0,1,18.452,21.652A22.685,22.685,0,0,1,0,399.428v19.439a22.755,22.755,0,0,1,18.452,21.722A22.688,22.688,0,0,1,0,462.241V481.68A22.755,22.755,0,0,1,18.452,503.4,22.619,22.619,0,0,1,0,525.054v19.508a22.619,22.619,0,0,1,18.452,21.652A22.613,22.613,0,0,1,0,588.005v19.37a22.619,22.619,0,0,1,18.452,21.652A22.755,22.755,0,0,1,0,650.749v19.439a22.691,22.691,0,0,1,18.452,21.583A22.683,22.683,0,0,1,0,713.562v19.715A22.755,22.755,0,0,1,18.452,755,22.7,22.7,0,0,1,0,776.374v18.194a23.031,23.031,0,0,1,11.729,7.471,21.51,21.51,0,0,1,6.723,15.5H36.118v-1.107a22.162,22.162,0,0,1,6.6-16.073,23.7,23.7,0,0,1,16.429-6.825c12.878.189,23.157,10.442,22.958,22.9v1.107h19.168a6.7,6.7,0,0,1,0-1.107c0-12.3,10.311-22.275,23.03-22.275s23.03,9.973,23.03,22.275v1.107H166.5a6.688,6.688,0,0,1,0-1.107c0-12.3,10.311-22.275,23.03-22.275s23.03,9.973,23.03,22.275a6.69,6.69,0,0,1,0,1.107h18.452v-1.107c0-12.3,10.311-22.275,23.03-22.275s23.03,9.973,23.03,22.275v1.107h19.1v-1.107c0-12.3,10.311-22.275,23.03-22.275s23.03,9.973,23.03,22.275v1.107h19.1v-1.107a22.092,22.092,0,0,1,11.111-20.321,23.7,23.7,0,0,1,23.767,0,22.092,22.092,0,0,1,11.111,20.321v1.107H426.48a6.7,6.7,0,0,1,0-1.107c0-12.3,10.311-22.275,23.03-22.275s23.03,9.973,23.03,22.275v1.107h19.168a6.688,6.688,0,0,1,0-1.107c0-12.3,10.311-22.275,23.03-22.275s23.03,9.973,23.03,22.275a6.689,6.689,0,0,1,0,1.107h19.168v-1.107c0-12.3,10.311-22.275,23.03-22.275s23.03,9.973,23.03,22.275v1.107h19.1v-1.107A22.092,22.092,0,0,1,633.2,796.107a23.7,23.7,0,0,1,23.767,0,22.092,22.092,0,0,1,11.11,20.321v1.107h19.1v-1.107c0-12.3,10.311-22.275,23.03-22.275s23.03,9.973,23.03,22.275v1.107H750.97a6.7,6.7,0,0,1,0-1.107c0-12.3,10.311-22.275,23.03-22.275s23.03,9.973,23.03,22.275c0,0,0,.692,0,1.107h18.309v-1.107c0-12.3,10.311-22.275,23.03-22.275s23.03,9.973,23.03,22.275a6.716,6.716,0,0,1,0,1.107h16.879v-.83c0-12.3,10.311-22.275,23.03-22.275s23.03,9.973,23.03,22.275a3.359,3.359,0,0,1,0,.83h19.1v-.83c0-12.3,10.311-22.275,23.03-22.275s23.03,9.973,23.03,22.275v.83h18.953a3.356,3.356,0,0,1,0-.83c0-12.3,10.311-22.275,23.03-22.275s23.03,9.973,23.03,22.275v.83h19.1v-.83a22.091,22.091,0,0,1,11.11-20.321,23.7,23.7,0,0,1,23.767,0,22.092,22.092,0,0,1,11.11,20.321v.83h17.737a21.556,21.556,0,0,1,7.581-16.257,23.316,23.316,0,0,1,10.871-6.433v-18.47a21.944,21.944,0,0,1,0-43.374V713.562a21.944,21.944,0,0,1,0-43.374V650.749a21.944,21.944,0,0,1,0-43.374v-19.37a21.938,21.938,0,0,1,0-43.3V525.054a21.944,21.944,0,0,1,0-43.374V462.241a21.944,21.944,0,0,1,0-43.374V399.428a21.944,21.944,0,0,1,0-43.374V336.546a21.938,21.938,0,0,1,0-43.3V273.734a21.938,21.938,0,0,1,0-43.3V210.921a21.938,21.938,0,0,1,0-43.3V148.108a21.944,21.944,0,0,1,0-43.374V85.3a21.944,21.944,0,0,1,0-43.374V22.413a22.651,22.651,0,0,1-19.1-21.652Z" fill="#edead9" opacity="0.28"/>
</svg>
