<svg id="Groupe_122" data-name="Groupe 122" xmlns="http://www.w3.org/2000/svg" width="103.913" height="103.913" viewBox="0 0 103.913 103.913">
  <path id="Tracé_85" data-name="Tracé 85" d="M51.8,0a51.957,51.957,0,1,0,52.109,52.109A51.827,51.827,0,0,0,51.8,0Zm0,6.095A45.862,45.862,0,1,1,6.095,52.109,45.78,45.78,0,0,1,51.8,6.095Z" fill="#edead9"/>
  <path id="Tracé_86" data-name="Tracé 86" d="M103.534,119.084a2.962,2.962,0,0,0,.3-4.266,3.263,3.263,0,0,0-4.266-.3L84.032,128.836a3.049,3.049,0,0,0,0,4.571l15.541,14.322a3.024,3.024,0,0,0,3.962-4.571l-9.751-8.837H133.4a3.054,3.054,0,0,0,3.047-3.047,2.879,2.879,0,0,0-3.047-3.047H93.783Z" transform="translate(-57.825 -79.164)" fill="#edead9"/>
</svg>
