<svg id="git" xmlns="http://www.w3.org/2000/svg" width="36.625" height="36.625" viewBox="0 0 36.625 36.625">
  <path id="Tracé_10" data-name="Tracé 10" d="M29.758,36.625H6.867A6.867,6.867,0,0,1,0,29.758V6.867A6.867,6.867,0,0,1,6.867,0H29.758a6.867,6.867,0,0,1,6.867,6.867V29.758A6.867,6.867,0,0,1,29.758,36.625Z" fill="#ffe6e2"/>
  <path id="Tracé_11" data-name="Tracé 11" d="M16.1,11.882a5.967,5.967,0,0,1-2.2.482,3.344,3.344,0,0,0-5.117,2.829h0a3.119,3.119,0,0,0,1.674,2.8v.041a1.693,1.693,0,0,0,.04,2.69v.041a2.322,2.322,0,0,0-1.828,2.3c0,2.1,1.969,2.69,3.692,2.69,2.1,0,3.66-.765,3.66-3.107,0-2.882-4.076-1.819-4.076-3.384,0-.552.291-.765.794-.87a3.26,3.26,0,0,0,2.724-3.36,2.493,2.493,0,0,0-.161-.858,7.307,7.307,0,0,0,.794-.225V11.882ZM12.318,21.89c.686,0,1.662.122,1.662,1.021s-.786,1.075-1.521,1.075c-.7,0-1.748-.111-1.748-1.03S11.6,21.89,12.318,21.89ZM12.189,16.6c-.887,0-1.262-.532-1.262-1.383,0-2.016,2.461-1.995,2.461-.021,0,.831-.323,1.4-1.2,1.4Z" transform="translate(1.253 1.717)" fill="#fc573b"/>
  <path id="Tracé_12" data-name="Tracé 12" d="M23.989,20.82v-2a2.172,2.172,0,0,1-1.182.339c-.746,0-.88-.736-.88-1.341V14.092c1.28,0,2.058.041,2.058.041V12.191H21.927a11.689,11.689,0,0,1,.061-1.684H19.7a10.043,10.043,0,0,1,.061,1.684h-.968v1.942a3.183,3.183,0,0,1,.968-.041v.041h-.019v3.585c0,1.779.254,3.5,2.413,3.5a3.894,3.894,0,0,0,1.836-.4Z" transform="translate(2.716 1.519)" fill="#fc573b"/>
  <path id="Tracé_13" data-name="Tracé 13" d="M17.17,8a1.5,1.5,0,1,0,1.363,1.5A1.449,1.449,0,0,0,17.17,8Z" transform="translate(2.28 1.156)" fill="#fd907e"/>
  <path id="Tracé_14" data-name="Tracé 14" d="M16.011,11.971c.072.6.064,8.164,0,8.9h2.24c-.064-.735-.072-8.307,0-8.9Z" transform="translate(2.314 1.73)" fill="#fc573b"/>
</svg>
