<svg xmlns="http://www.w3.org/2000/svg" width="39.846" height="26.867" viewBox="0 0 39.846 26.867">
  <g id="Groupe_139" data-name="Groupe 139" transform="translate(63 -876.5)">
    <g id="Groupe_3" data-name="Groupe 3" transform="translate(-63 876.5)">
      <g id="Groupe_1" data-name="Groupe 1" transform="translate(0.327 0.328)">
        <path id="Tracé_1" data-name="Tracé 1" d="M270.344,154.274,255.649,167.38l-14.7,13.106-4.9-11.2-4.9-11.2,19.6-1.907Z" transform="translate(-231.152 -154.274)" fill="#e84c3d"/>
      </g>
      <g id="Groupe_2" data-name="Groupe 2">
        <path id="Tracé_2" data-name="Tracé 2" d="M240.626,180.49a.327.327,0,0,1-.3-.2l-9.8-22.4a.327.327,0,0,1,.268-.457l39.191-3.815a.327.327,0,0,1,.25.57l-29.4,26.212A.328.328,0,0,1,240.626,180.49Zm-9.316-22.443,9.435,21.571,28.31-25.244Z" transform="translate(-230.502 -153.623)"/>
      </g>
    </g>
    <g id="Groupe_4" data-name="Groupe 4" transform="translate(-58.102 876.5)">
      <path id="Tracé_3" data-name="Tracé 3" d="M240.56,169.292a.327.327,0,0,1-.131-.627l34.292-15.013a.327.327,0,1,1,.263.6l-34.293,15.013A.319.319,0,0,1,240.56,169.292Z" transform="translate(-240.232 -153.624)"/>
    </g>
    <g id="Groupe_7" data-name="Groupe 7" transform="translate(-59.258 891.514)">
      <g id="Groupe_5" data-name="Groupe 5" transform="translate(0.327 0.327)">
        <path id="Tracé_4" data-name="Tracé 4" d="M239.741,184.1l-1.157,8.327,4.5-.676" transform="translate(-238.584 -184.096)" fill="#fff8d1"/>
      </g>
      <g id="Groupe_6" data-name="Groupe 6">
        <path id="Tracé_5" data-name="Tracé 5" d="M238.261,192.428a.328.328,0,0,1-.324-.373l1.157-8.327a.327.327,0,0,1,.648.09l-1.1,7.893,4.068-.612a.327.327,0,0,1,.1.647l-4.5.676A.316.316,0,0,1,238.261,192.428Z" transform="translate(-237.934 -183.446)"/>
      </g>
    </g>
  </g>
</svg>
