<svg id="linkedin" xmlns="http://www.w3.org/2000/svg" width="36.843" height="36.843" viewBox="0 0 36.843 36.843">
  <path id="Tracé_6" data-name="Tracé 6" d="M29.935,36.843H6.908A6.908,6.908,0,0,1,0,29.935V6.908A6.908,6.908,0,0,1,6.908,0H29.935a6.908,6.908,0,0,1,6.908,6.908V29.935A6.908,6.908,0,0,1,29.935,36.843Z" fill="#ffe6e2"/>
  <path id="Tracé_7" data-name="Tracé 7" d="M25.56,25.657h0V18.9c0-3.306-.712-5.851-4.575-5.851a4.01,4.01,0,0,0-3.613,1.986h-.053V13.358H13.66v12.3h3.816v-6.09c0-1.6.3-3.154,2.29-3.154,1.956,0,1.986,1.83,1.986,3.257v5.987Z" transform="translate(2.067 1.975)" fill="#fd907e"/>
  <g id="Groupe_10" data-name="Groupe 10" transform="translate(9.211 9.211)">
    <path id="Tracé_8" data-name="Tracé 8" d="M8.264,13.318h3.819v12.3H8.264Z" transform="translate(-7.96 -7.195)" fill="#fc573b"/>
    <path id="Tracé_9" data-name="Tracé 9" d="M10.212,8a2.222,2.222,0,1,0,2.212,2.212A2.213,2.213,0,0,0,10.212,8Z" transform="translate(-8 -8)" fill="#fc573b"/>
  </g>
</svg>
