<svg id="linkedin-logo" xmlns="http://www.w3.org/2000/svg" width="31.979" height="30.557" viewBox="0 0 31.979 30.557">
  <path id="LinkedIn" d="M31.979,28.293V40.115H25.125V29.085c0-2.771-.991-4.662-3.472-4.662a3.75,3.75,0,0,0-3.517,2.507,4.69,4.69,0,0,0-.227,1.671V40.115H11.052s.092-18.683,0-20.618h6.856V22.42c-.014.022-.032.045-.045.067h.045V22.42a6.807,6.807,0,0,1,6.179-3.407C28.6,19.013,31.979,21.96,31.979,28.293ZM3.88,9.558a3.573,3.573,0,1,0-.091,7.126h.046A3.574,3.574,0,1,0,3.88,9.558ZM.407,40.115H7.261V19.5H.407Z" transform="translate(0 -9.558)" fill="#c12419"/>
</svg>
