<svg xmlns="http://www.w3.org/2000/svg" width="30.556" height="29.803" viewBox="0 0 30.556 29.803">
  <path id="Octicons-mark-github" d="M15.278,0a15.279,15.279,0,0,0-4.832,29.773c.764.134,1.05-.325,1.05-.726,0-.363-.019-1.566-.019-2.846-3.839.707-4.832-.936-5.137-1.8a5.556,5.556,0,0,0-1.566-2.158c-.535-.286-1.3-.993-.019-1.012A3.057,3.057,0,0,1,7.1,22.8a3.266,3.266,0,0,0,4.45,1.26,3.214,3.214,0,0,1,.974-2.043c-3.4-.382-6.952-1.7-6.952-7.544A5.946,5.946,0,0,1,7.143,10.37,5.49,5.49,0,0,1,7.3,6.321s1.28-.4,4.2,1.566a14.4,14.4,0,0,1,7.639,0c2.922-1.986,4.2-1.566,4.2-1.566a5.49,5.49,0,0,1,.153,4.049,5.911,5.911,0,0,1,1.566,4.106c0,5.863-3.571,7.162-6.971,7.544a3.618,3.618,0,0,1,1.031,2.826c0,2.043-.019,3.686-.019,4.2,0,.4.286.878,1.05.726A15.286,15.286,0,0,0,15.278,0Z" fill="#c12419" fill-rule="evenodd"/>
</svg>
