<svg xmlns="http://www.w3.org/2000/svg" width="24.807" height="30.62" viewBox="0 0 24.807 30.62">
  <g id="Groupe_112" data-name="Groupe 112" transform="translate(-498 -400.715)">
    <g id="Groupe_111" data-name="Groupe 111" transform="translate(498 400.715)">
      <g id="Groupe_93" data-name="Groupe 93" transform="translate(1.64 14.946)">
        <g id="Groupe_91" data-name="Groupe 91" transform="translate(0.252 0.252)">
          <path id="Tracé_65" data-name="Tracé 65" d="M523.915,440.018V453.4a1.98,1.98,0,0,1-2.118,1.787H505.01a1.98,1.98,0,0,1-2.119-1.787V440.018Z" transform="translate(-502.891 -440.018)" fill="#f0b465"/>
        </g>
        <g id="Groupe_92" data-name="Groupe 92">
          <path id="Tracé_66" data-name="Tracé 66" d="M521.4,455.041H504.61A2.226,2.226,0,0,1,502.24,453V439.619a.252.252,0,0,1,.252-.252h21.024a.251.251,0,0,1,.251.252V453A2.225,2.225,0,0,1,521.4,455.041ZM502.743,439.87V453a1.728,1.728,0,0,0,1.867,1.536H521.4A1.728,1.728,0,0,0,523.264,453V439.87Z" transform="translate(-502.24 -439.367)"/>
        </g>
      </g>
      <g id="Groupe_96" data-name="Groupe 96" transform="translate(0 10.885)">
        <g id="Groupe_94" data-name="Groupe 94" transform="translate(0.251 0.252)">
          <path id="Tracé_67" data-name="Tracé 67" d="M499.534,429.515h22.532a.89.89,0,0,1,.889.888v2.288a.89.89,0,0,1-.889.885H499.534a.889.889,0,0,1-.884-.885V430.4A.888.888,0,0,1,499.534,429.515Z" transform="translate(-498.65 -429.515)" fill="#fff8d1"/>
        </g>
        <g id="Groupe_95" data-name="Groupe 95">
          <path id="Tracé_68" data-name="Tracé 68" d="M521.667,433.428H499.135A1.137,1.137,0,0,1,498,432.292V430a1.139,1.139,0,0,1,1.135-1.14h22.532a1.141,1.141,0,0,1,1.14,1.14v2.288A1.14,1.14,0,0,1,521.667,433.428Zm-22.532-4.061a.635.635,0,0,0-.632.637v2.288a.634.634,0,0,0,.632.634h22.532a.636.636,0,0,0,.637-.634V430a.638.638,0,0,0-.637-.637Z" transform="translate(-498 -428.864)"/>
        </g>
      </g>
      <g id="Groupe_99" data-name="Groupe 99" transform="translate(1.84 0.265)">
        <g id="Groupe_97" data-name="Groupe 97" transform="translate(0.252 0.251)">
          <path id="Tracé_69" data-name="Tracé 69" d="M503.408,403.292l4.624-1.242,2.842,10.62h-4.953Z" transform="translate(-503.408 -402.051)" fill="#e84c3d"/>
        </g>
        <g id="Groupe_98" data-name="Groupe 98">
          <path id="Tracé_70" data-name="Tracé 70" d="M510.483,412.524h-4.96a.252.252,0,0,1-.243-.186l-2.513-9.378a.251.251,0,0,1,.177-.308l4.624-1.242a.252.252,0,0,1,.308.178L510.7,412.15a.255.255,0,0,1,.031.122A.251.251,0,0,1,510.483,412.524Zm-4.767-.5h4.432l-2.693-10.06-4.138,1.111Z" transform="translate(-502.758 -401.401)"/>
        </g>
      </g>
      <g id="Groupe_100" data-name="Groupe 100" transform="translate(4.913 1.771)">
        <path id="Tracé_71" data-name="Tracé 71" d="M510.956,406.32a.251.251,0,0,1-.065-.494l1.954-.524a.251.251,0,1,1,.13.485l-1.954.524A.266.266,0,0,1,510.956,406.32Z" transform="translate(-510.705 -405.294)"/>
      </g>
      <g id="Groupe_101" data-name="Groupe 101" transform="translate(5.672 4.606)">
        <path id="Tracé_72" data-name="Tracé 72" d="M512.919,413.653a.251.251,0,0,1-.065-.494l1.954-.525a.251.251,0,0,1,.131.486l-1.954.525A.27.27,0,0,1,512.919,413.653Z" transform="translate(-512.668 -412.625)"/>
      </g>
      <g id="Groupe_102" data-name="Groupe 102" transform="translate(6.432 7.441)">
        <path id="Tracé_73" data-name="Tracé 73" d="M514.884,420.986a.251.251,0,0,1-.065-.494l1.95-.526a.251.251,0,0,1,.131.486l-1.95.526A.274.274,0,0,1,514.884,420.986Z" transform="translate(-514.633 -419.958)"/>
      </g>
      <g id="Groupe_105" data-name="Groupe 105" transform="translate(14.497 1.405)">
        <g id="Groupe_103" data-name="Groupe 103" transform="translate(0.251 0.251)">
          <path id="Tracé_74" data-name="Tracé 74" d="M544.107,406.664,540.388,405l-4.248,9.48h4.468l2.881-6.441Z" transform="translate(-536.14 -404.999)" fill="#faca44"/>
        </g>
        <g id="Groupe_104" data-name="Groupe 104">
          <path id="Tracé_75" data-name="Tracé 75" d="M540.209,414.332h-4.468a.251.251,0,0,1-.229-.354l4.248-9.48a.253.253,0,0,1,.332-.127l3.719,1.665a.251.251,0,0,1,.126.333l-3.5,7.815A.252.252,0,0,1,540.209,414.332Zm-4.08-.5h3.917l3.33-7.437-3.26-1.459Z" transform="translate(-535.49 -404.349)"/>
        </g>
      </g>
      <g id="Groupe_106" data-name="Groupe 106" transform="translate(15.444 2.455)">
        <path id="Tracé_76" data-name="Tracé 76" d="M538.191,411.229a.252.252,0,0,1-.229-.354l1.64-3.662a.251.251,0,0,1,.333-.126l4.706,2.111a.251.251,0,1,1-.206.459l-4.477-2.008-1.537,3.432A.252.252,0,0,1,538.191,411.229Z" transform="translate(-537.94 -407.065)"/>
      </g>
      <g id="Groupe_109" data-name="Groupe 109" transform="translate(19.492)">
        <g id="Groupe_107" data-name="Groupe 107" transform="translate(0.252 0.251)">
          <path id="Tracé_77" data-name="Tracé 77" d="M551.111,401.5v0a1.11,1.11,0,0,0-1.492.357l-.56,1.249,2.223,1,.561-1.253A1.1,1.1,0,0,0,551.111,401.5Z" transform="translate(-549.059 -401.365)" fill="#fff8d1"/>
        </g>
        <g id="Groupe_108" data-name="Groupe 108">
          <path id="Tracé_78" data-name="Tracé 78" d="M550.883,403.955a.253.253,0,0,1-.1-.022l-2.223-1a.25.25,0,0,1-.126-.332l.56-1.249a1.178,1.178,0,0,1,1.114-.637,1.776,1.776,0,0,1,.709.153.26.26,0,0,1,.039.022,1.611,1.611,0,0,1,.83.852,1.053,1.053,0,0,1-.009.81l-.561,1.253a.252.252,0,0,1-.229.149Zm-1.892-1.377,1.765.793.458-1.024a.55.55,0,0,0,0-.425,1.13,1.13,0,0,0-.6-.59l-.033-.018a.887.887,0,0,0-1.128.245Z" transform="translate(-548.408 -400.715)"/>
        </g>
      </g>
      <g id="Groupe_110" data-name="Groupe 110" transform="translate(18.568 16.736)">
        <path id="Tracé_79" data-name="Tracé 79" d="M546.27,456.093a.252.252,0,0,1,0-.5,1.259,1.259,0,0,0,1.365-1.111V444.248a.252.252,0,1,1,.5,0v10.231A1.758,1.758,0,0,1,546.27,456.093Z" transform="translate(-546.019 -443.996)"/>
      </g>
    </g>
  </g>
</svg>
